<svg xmlns="http://www.w3.org/2000/svg" viewBox="0 0 750 366">
  <rect width="750" height="366" fill="#ffffff" rx="10" stroke="#d4d2c8" stroke-width="0.8"/>
  <text x="375" y="24" text-anchor="middle" font-size="13" font-weight="bold" fill="#444441" font-family="sans-serif">Weight &amp; Balance — Satria Talon (Updated)</text>
  <text x="20" y="44" font-size="10" font-weight="bold" fill="#888780" font-family="sans-serif">Parameter</text>
  <text x="260" y="44" font-size="10" font-weight="bold" fill="#888780" font-family="sans-serif">Imperial</text>
  <text x="340" y="44" font-size="10" font-weight="bold" fill="#888780" font-family="sans-serif">Metrik / Keterangan</text>
  <line x1="8" y1="48" x2="742" y2="48" stroke="#d4d2c8" stroke-width="0.8"/>
  <rect x="8" y="37" width="734" height="26" fill="#f5f5f5" rx="2"/>
  <text x="20" y="52" font-size="10" fill="#444441" font-family="sans-serif">Empty weight</text>
  <text x="260" y="52" font-size="10" fill="#444441" font-weight="bold" font-family="monospace">3.00 lb</text>
  <text x="340" y="52" font-size="10" fill="#444441" font-family="sans-serif">1.361 kg</text>
  <rect x="8" y="67" width="734" height="26" fill="#ffffff" rx="2"/>
  <text x="20" y="82" font-size="10" fill="#444441" font-family="sans-serif">Maximum weight (MTOW)</text>
  <text x="260" y="82" font-size="10" fill="#444441" font-weight="bold" font-family="monospace">5.25 lb</text>
  <text x="340" y="82" font-size="10" fill="#444441" font-family="sans-serif">2.381 kg</text>
  <rect x="8" y="97" width="734" height="26" fill="#e6f4ee" rx="2"/>
  <text x="20" y="112" font-size="10" fill="#444441" font-family="sans-serif">Payload total (MTOW−empty)</text>
  <text x="260" y="112" font-size="10" fill="#0e6b3d" font-weight="bold" font-family="monospace">2.25 lb</text>
  <text x="340" y="112" font-size="10" fill="#0e6b3d" font-family="sans-serif">1.021 kg</text>
  <rect x="8" y="127" width="734" height="26" fill="#ffffff" rx="2"/>
  <text x="20" y="142" font-size="10" fill="#444441" font-family="sans-serif">Fuel load</text>
  <text x="260" y="142" font-size="10" fill="#888780" font-weight="bold" font-family="monospace">0.00 lb</text>
  <text x="340" y="142" font-size="10" fill="#888780" font-family="sans-serif">0 — electric platform</text>
  <rect x="8" y="157" width="734" height="26" fill="#f5f5f5" rx="2"/>
  <text x="20" y="172" font-size="10" fill="#444441" font-family="sans-serif">Long CG — forward limit</text>
  <text x="260" y="172" font-size="10" fill="#378ADD" font-weight="bold" font-family="monospace">0.91 ft</text>
  <text x="340" y="172" font-size="10" fill="#378ADD" font-family="sans-serif">26.4% MAC · 5.56 cm dari LE MAC</text>
  <rect x="8" y="187" width="734" height="26" fill="#e6f4ee" rx="2"/>
  <text x="20" y="202" font-size="10" fill="#444441" font-family="sans-serif">Long CG — default/nominal</text>
  <text x="260" y="202" font-size="10" fill="#0e6b3d" font-weight="bold" font-family="monospace">0.92 ft</text>
  <text x="340" y="202" font-size="10" fill="#0e6b3d" font-family="sans-serif">27.9% MAC · 5.87 cm dari LE MAC ✓</text>
  <rect x="8" y="217" width="734" height="26" fill="#f5f5f5" rx="2"/>
  <text x="20" y="232" font-size="10" fill="#444441" font-family="sans-serif">Long CG — aft limit</text>
  <text x="260" y="232" font-size="10" fill="#D85A30" font-weight="bold" font-family="monospace">0.96 ft</text>
  <text x="340" y="232" font-size="10" fill="#D85A30" font-family="sans-serif">33.7% MAC · 7.09 cm dari LE MAC</text>
  <rect x="8" y="247" width="734" height="26" fill="#ffffff" rx="2"/>
  <text x="20" y="262" font-size="10" fill="#444441" font-family="sans-serif">Vert CG</text>
  <text x="260" y="262" font-size="10" fill="#888780" font-weight="bold" font-family="monospace">0.00 ft</text>
  <text x="340" y="262" font-size="10" fill="#888780" font-family="sans-serif">—</text>
  <rect x="8" y="277" width="734" height="26" fill="#e6f4ee" rx="2"/>
  <text x="20" y="292" font-size="10" fill="#444441" font-family="sans-serif">Static margin @ nominal CG</text>
  <text x="260" y="292" font-size="10" fill="#0e6b3d" font-weight="bold" font-family="monospace">—</text>
  <text x="340" y="292" font-size="10" fill="#0e6b3d" font-family="sans-serif">~12.1% MAC (NP est. ~40% MAC) — AMAN</text>
  <rect x="8" y="307" width="734" height="26" fill="#ffffff" rx="2"/>
  <text x="20" y="322" font-size="10" fill="#444441" font-family="sans-serif">Static margin @ aft limit</text>
  <text x="260" y="322" font-size="10" fill="#BA7517" font-weight="bold" font-family="monospace">—</text>
  <text x="340" y="322" font-size="10" fill="#BA7517" font-family="sans-serif">~6.3% MAC — MARGINAL (jangan dilampaui)</text>
</svg>