<svg xmlns="http://www.w3.org/2000/svg" viewBox="0 0 745 320"><rect width="745" height="320" fill="#ffffff" rx="10" stroke="#d4d2c8" stroke-width="0.8"/><text x="372" y="24" text-anchor="middle" font-size="13" font-weight="bold" fill="#444441" font-family="sans-serif">Weight &amp; Balance — Satria Nano (Final)</text>  <text x="20" y="44" font-size="10" font-weight="bold" fill="#888780" font-family="sans-serif">Parameter</text>
  <text x="195" y="44" font-size="10" font-weight="bold" fill="#888780" font-family="sans-serif">Imperial</text>
  <text x="280" y="44" font-size="10" font-weight="bold" fill="#888780" font-family="sans-serif">Keterangan</text>
  <line x1="8" y1="48" x2="738" y2="48" stroke="#d4d2c8" stroke-width="0.8"/>
  <rect x="8" y="38" width="730" height="24" fill="#f5f5f5" rx="2"/>
  <text x="20" y="52" font-size="10" fill="#444441" font-family="sans-serif">Empty weight</text>
  <text x="195" y="52" font-size="10" fill="#444441" font-weight="bold" font-family="monospace">2.20 lb</text>
  <text x="280" y="52" font-size="10" fill="#444441" font-family="sans-serif">0.998 kg</text>
  <rect x="8" y="66" width="730" height="24" fill="#ffffff" rx="2"/>
  <text x="20" y="80" font-size="10" fill="#444441" font-family="sans-serif">Maximum weight (MTOW)</text>
  <text x="195" y="80" font-size="10" fill="#444441" font-weight="bold" font-family="monospace">3.50 lb</text>
  <text x="280" y="80" font-size="10" fill="#444441" font-family="sans-serif">1.588 kg</text>
  <rect x="8" y="94" width="730" height="24" fill="#e6f4ee" rx="2"/>
  <text x="20" y="108" font-size="10" fill="#444441" font-family="sans-serif">Payload total</text>
  <text x="195" y="108" font-size="10" fill="#0e6b3d" font-weight="bold" font-family="monospace">1.30 lb</text>
  <text x="280" y="108" font-size="10" fill="#0e6b3d" font-family="sans-serif">590 g</text>
  <rect x="8" y="122" width="730" height="24" fill="#ffffff" rx="2"/>
  <text x="20" y="136" font-size="10" fill="#444441" font-family="sans-serif">CG fwd limit</text>
  <text x="195" y="136" font-size="10" fill="#378ADD" font-weight="bold" font-family="monospace">0.62 ft</text>
  <text x="280" y="136" font-size="10" fill="#378ADD" font-family="sans-serif">28.5% MAC · 4.95 cm dari LE</text>
  <rect x="8" y="150" width="730" height="24" fill="#e6f4ee" rx="2"/>
  <text x="20" y="164" font-size="10" fill="#444441" font-family="sans-serif">CG nominal ✓</text>
  <text x="195" y="164" font-size="10" fill="#0e6b3d" font-weight="bold" font-family="monospace">0.63 ft</text>
  <text x="280" y="164" font-size="10" fill="#0e6b3d" font-family="sans-serif">30.3% MAC · 5.26 cm dari LE</text>
  <rect x="8" y="178" width="730" height="24" fill="#fff8ee" rx="2"/>
  <text x="20" y="192" font-size="10" fill="#444441" font-family="sans-serif">CG aft limit</text>
  <text x="195" y="192" font-size="10" fill="#BA7517" font-weight="bold" font-family="monospace">0.65 ft</text>
  <text x="280" y="192" font-size="10" fill="#BA7517" font-family="sans-serif">33.8% MAC · 5.87 cm dari LE  (SM 6.2%)</text>
  <rect x="8" y="206" width="730" height="24" fill="#f5f5f5" rx="2"/>
  <text x="20" y="220" font-size="10" fill="#444441" font-family="sans-serif">Vert CG</text>
  <text x="195" y="220" font-size="10" fill="#888780" font-weight="bold" font-family="monospace">0.00 ft</text>
  <text x="280" y="220" font-size="10" fill="#888780" font-family="sans-serif">—</text>
  <rect x="8" y="234" width="730" height="24" fill="#e6f4ee" rx="2"/>
  <text x="20" y="248" font-size="10" fill="#444441" font-family="sans-serif">SM @ nominal</text>
  <text x="195" y="248" font-size="10" fill="#0e6b3d" font-weight="bold" font-family="monospace">—</text>
  <text x="280" y="248" font-size="10" fill="#0e6b3d" font-family="sans-serif">~9.7% MAC (NP est. ~40%) — AMAN ✓</text>
  <rect x="8" y="262" width="730" height="24" fill="#fff8ee" rx="2"/>
  <text x="20" y="276" font-size="10" fill="#444441" font-family="sans-serif">SM @ aft limit</text>
  <text x="195" y="276" font-size="10" fill="#BA7517" font-weight="bold" font-family="monospace">—</text>
  <text x="280" y="276" font-size="10" fill="#BA7517" font-family="sans-serif">~6.2% MAC — AMAN</text></svg>