<svg xmlns="http://www.w3.org/2000/svg" viewBox="0 0 600 270"><rect width="600" height="270" fill="#ffffff" rx="10" stroke="#d4d2c8" stroke-width="0.8"/><text x="300" y="26" text-anchor="middle" font-size="13" font-weight="bold" fill="#444441" font-family="sans-serif">Endurance vs Wingspan — 3S 3000 mAh</text><text x="300" y="40" text-anchor="middle" font-size="10" fill="#888780" font-family="sans-serif">NACA 2412 · MTOW 3.50 lb · semi 1.52 ft · root 0.66 ft · tip 0.48 ft</text><line x1="115" y1="44" x2="115" y2="252" stroke="#d4d2c8" stroke-width="0.8"/>  <rect x="115" y="45" width="330" height="24" fill="#f5f5f5" rx="2"/>
  <rect x="115" y="47" width="75" height="20" fill="#1D9E75" rx="2" opacity="0.88"/>
  <text x="109" y="60" text-anchor="end" font-size="11" fill="#888780" font-weight="normal" font-family="sans-serif">70 cm</text>
  <text x="195" y="60" font-size="10" fill="#1D9E75" font-weight="normal" font-family="sans-serif">33 mnt</text>
  <rect x="115" y="71" width="330" height="24" fill="#f5f5f5" rx="2"/>
  <rect x="115" y="73" width="103" height="20" fill="#1D9E75" rx="2" opacity="0.88"/>
  <text x="109" y="86" text-anchor="end" font-size="11" fill="#888780" font-weight="normal" font-family="sans-serif">76 cm</text>
  <text x="223" y="86" font-size="10" fill="#1D9E75" font-weight="normal" font-family="sans-serif">36 mnt</text>
  <rect x="115" y="97" width="330" height="24" fill="#f5f5f5" rx="2"/>
  <rect x="115" y="99" width="132" height="20" fill="#1D9E75" rx="2" opacity="0.88"/>
  <text x="109" y="112" text-anchor="end" font-size="11" fill="#888780" font-weight="normal" font-family="sans-serif">80 cm</text>
  <text x="252" y="112" font-size="10" fill="#1D9E75" font-weight="normal" font-family="sans-serif">39 mnt</text>
  <rect x="115" y="123" width="330" height="24" fill="#f5f5f5" rx="2"/>
  <rect x="115" y="125" width="160" height="20" fill="#1D9E75" rx="2" opacity="0.88"/>
  <text x="109" y="138" text-anchor="end" font-size="11" fill="#888780" font-weight="normal" font-family="sans-serif">85 cm</text>
  <text x="280" y="138" font-size="10" fill="#1D9E75" font-weight="normal" font-family="sans-serif">42 mnt</text>
  <rect x="115" y="149" width="330" height="24" fill="#f5f5f5" rx="2"/>
  <rect x="115" y="151" width="188" height="20" fill="#1D9E75" rx="2" opacity="0.88"/>
  <text x="109" y="164" text-anchor="end" font-size="11" fill="#888780" font-weight="normal" font-family="sans-serif">90 cm</text>
  <text x="308" y="164" font-size="10" fill="#1D9E75" font-weight="normal" font-family="sans-serif">45 mnt</text>
  <rect x="115" y="175" width="330" height="24" fill="#e6f4ee" rx="2"/>
  <rect x="115" y="177" width="207" height="20" fill="#0e6b3d" rx="2" opacity="0.88"/>
  <text x="109" y="190" text-anchor="end" font-size="11" fill="#0e6b3d" font-weight="bold" font-family="sans-serif">93 cm</text>
  <text x="327" y="190" font-size="10" fill="#0e6b3d" font-weight="bold" font-family="sans-serif">47 mnt ← 93 cm ★</text>
  <rect x="115" y="201" width="330" height="24" fill="#f5f5f5" rx="2"/>
  <rect x="115" y="203" width="216" height="20" fill="#1D9E75" rx="2" opacity="0.88"/>
  <text x="109" y="216" text-anchor="end" font-size="11" fill="#888780" font-weight="normal" font-family="sans-serif">95 cm</text>
  <text x="336" y="216" font-size="10" fill="#1D9E75" font-weight="normal" font-family="sans-serif">48 mnt</text>
  <rect x="115" y="227" width="330" height="24" fill="#f5f5f5" rx="2"/>
  <rect x="115" y="229" width="245" height="20" fill="#1D9E75" rx="2" opacity="0.88"/>
  <text x="109" y="242" text-anchor="end" font-size="11" fill="#888780" font-weight="normal" font-family="sans-serif">100 cm</text>
  <text x="365" y="242" font-size="10" fill="#1D9E75" font-weight="normal" font-family="sans-serif">51 mnt</text></svg>