<svg xmlns="http://www.w3.org/2000/svg" viewBox="0 0 820 510"><rect width="820" height="510" fill="#ffffff" rx="10" stroke="#d4d2c8" stroke-width="0.8"/><text x="410" y="22" text-anchor="middle" font-size="14" font-weight="bold" fill="#444441" font-family="sans-serif">Titik Seimbang — Satria Nano (Final)</text><text x="410" y="36" text-anchor="middle" font-size="10" fill="#888780" font-family="sans-serif">Semi 1.52 ft · Wingspan 92.7 cm · NACA 2412 · root 20.1cm · tip 14.6cm</text>  <polygon points="310.0,150.0 313.0,150.0 315.9,150.0 318.9,150.0 321.9,150.0 324.9,150.0 327.8,150.0 330.8,150.0 333.8,150.0 336.8,150.0 339.7,150.0 342.7,150.0 345.7,150.0 348.6,150.0 351.6,150.0 354.6,150.0 357.6,150.0 360.5,150.0 363.5,150.0 366.5,150.0 369.5,150.0 372.4,150.0 375.4,150.0 378.4,150.0 381.3,150.0 384.3,150.0 387.3,150.0 390.3,150.0 393.2,150.0 396.2,150.0 399.2,150.0 402.2,150.0 405.1,150.0 408.1,150.0 411.1,150.0 414.0,150.0 417.0,150.0 420.0,150.0 423.0,150.0 425.9,150.0 428.9,150.0 431.9,150.0 434.9,150.0 437.8,150.0 440.8,150.0 443.8,150.0 446.7,150.0 449.7,150.0 452.7,150.0 455.7,150.0 458.6,150.0 461.6,150.0 464.6,150.0 467.6,150.0 470.5,150.0 473.5,150.0 476.5,150.0 479.5,150.0 482.4,150.0 485.4,150.0 488.4,150.0 488.4,206.3 485.4,206.7 482.4,207.0 479.5,207.4 476.5,207.7 473.5,208.1 470.5,208.4 467.6,208.8 464.6,209.1 461.6,209.5 458.6,209.8 455.7,210.2 452.7,210.6 449.7,210.9 446.7,211.3 443.8,211.6 440.8,212.0 437.8,212.3 434.9,212.7 431.9,213.0 428.9,213.4 425.9,213.7 423.0,214.1 420.0,214.4 417.0,214.8 414.0,215.1 411.1,215.5 408.1,215.8 405.1,216.2 402.2,216.5 399.2,216.9 396.2,217.2 393.2,217.6 390.3,217.9 387.3,218.3 384.3,218.6 381.3,219.0 378.4,219.4 375.4,219.7 372.4,220.1 369.5,220.4 366.5,220.8 363.5,221.1 360.5,221.5 357.6,221.8 354.6,222.2 351.6,222.5 348.6,222.9 345.7,223.2 342.7,223.6 339.7,223.9 336.8,224.3 333.8,224.6 330.8,225.0 327.8,225.3 324.9,225.7 321.9,226.0 318.9,226.4 315.9,226.7 313.0,227.1 310.0,227.4" fill="#c8d8e8" stroke="#2a5a8a" stroke-width="1.5" opacity="0.85"/>
  <polygon points="310.0,150.0 307.0,150.0 304.1,150.0 301.1,150.0 298.1,150.0 295.1,150.0 292.2,150.0 289.2,150.0 286.2,150.0 283.2,150.0 280.3,150.0 277.3,150.0 274.3,150.0 271.4,150.0 268.4,150.0 265.4,150.0 262.4,150.0 259.5,150.0 256.5,150.0 253.5,150.0 250.5,150.0 247.6,150.0 244.6,150.0 241.6,150.0 238.7,150.0 235.7,150.0 232.7,150.0 229.7,150.0 226.8,150.0 223.8,150.0 220.8,150.0 217.8,150.0 214.9,150.0 211.9,150.0 208.9,150.0 206.0,150.0 203.0,150.0 200.0,150.0 197.0,150.0 194.1,150.0 191.1,150.0 188.1,150.0 185.1,150.0 182.2,150.0 179.2,150.0 176.2,150.0 173.3,150.0 170.3,150.0 167.3,150.0 164.3,150.0 161.4,150.0 158.4,150.0 155.4,150.0 152.4,150.0 149.5,150.0 146.5,150.0 143.5,150.0 140.5,150.0 137.6,150.0 134.6,150.0 131.6,150.0 131.6,206.3 134.6,206.7 137.6,207.0 140.5,207.4 143.5,207.7 146.5,208.1 149.5,208.4 152.4,208.8 155.4,209.1 158.4,209.5 161.4,209.8 164.3,210.2 167.3,210.6 170.3,210.9 173.3,211.3 176.2,211.6 179.2,212.0 182.2,212.3 185.1,212.7 188.1,213.0 191.1,213.4 194.1,213.7 197.0,214.1 200.0,214.4 203.0,214.8 206.0,215.1 208.9,215.5 211.9,215.8 214.9,216.2 217.8,216.5 220.8,216.9 223.8,217.2 226.8,217.6 229.7,217.9 232.7,218.3 235.7,218.6 238.7,219.0 241.6,219.4 244.6,219.7 247.6,220.1 250.5,220.4 253.5,220.8 256.5,221.1 259.5,221.5 262.4,221.8 265.4,222.2 268.4,222.5 271.4,222.9 274.3,223.2 277.3,223.6 280.3,223.9 283.2,224.3 286.2,224.6 289.2,225.0 292.2,225.3 295.1,225.7 298.1,226.0 301.1,226.4 304.1,226.7 307.0,227.1 310.0,227.4" fill="#c8d8e8" stroke="#2a5a8a" stroke-width="1.5" opacity="0.85"/>
  <rect x="297" y="155.8" width="26" height="65.8" fill="#d4c4a0" stroke="#8a7050" stroke-width="1" rx="5" opacity="0.9"/>
  <line x1="310" y1="124" x2="310" y2="237.44968" stroke="#888780" stroke-width="0.6" stroke-dasharray="5,4" opacity="0.4"/>
  <line x1="394.5" y1="150" x2="394.5" y2="217.4" stroke="#1D9E75" stroke-width="1.3" stroke-dasharray="4,3"/>
  <line x1="225.5" y1="150" x2="225.5" y2="217.4" stroke="#1D9E75" stroke-width="1.3" stroke-dasharray="4,3"/>
  <line x1="131.6" y1="169.2" x2="488.4" y2="169.2" stroke="#378ADD" stroke-width="0.9" stroke-dasharray="6,3" opacity="0.55"/>
  <line x1="131.6" y1="170.4" x2="488.4" y2="170.4" stroke="#0e6b3d" stroke-width="1.1" stroke-dasharray="6,3" opacity="0.65"/>
  <circle cx="374.2" cy="169.1" r="7" fill="#ffffff" stroke="#378ADD" stroke-width="2.5"/>
  <circle cx="374.2" cy="169.1" r="2.5" fill="#378ADD"/>
  <circle cx="245.8" cy="169.1" r="7" fill="#ffffff" stroke="#378ADD" stroke-width="2.5"/>
  <circle cx="245.8" cy="169.1" r="2.5" fill="#378ADD"/>
  <circle cx="406.3" cy="170.2" r="8" fill="#ffffff" stroke="#0e6b3d" stroke-width="2.5"/>
  <circle cx="406.3" cy="170.2" r="2.5" fill="#0e6b3d"/>
  <circle cx="213.7" cy="170.2" r="8" fill="#ffffff" stroke="#0e6b3d" stroke-width="2.5"/>
  <circle cx="213.7" cy="170.2" r="2.5" fill="#0e6b3d"/>
  <line x1="374.2" y1="169.1" x2="374.2" y2="132" stroke="#378ADD" stroke-width="0.8" stroke-dasharray="3,2"/>
  <text x="374.2" y="118" text-anchor="middle" font-size="10" font-weight="bold" fill="#378ADD" font-family="sans-serif">CG fwd (first flight)</text>
  <text x="374.2" y="130" text-anchor="middle" font-size="8.5" fill="#378ADD" font-family="sans-serif">4.95 cm dari LE · 28.5% MAC</text>
  <line x1="406.3" y1="170.2" x2="494.36896" y2="234.0434544" stroke="#0e6b3d" stroke-width="0.8" stroke-dasharray="3,2"/>
  <text x="498.36896" y="234.0434544" font-size="10" font-weight="bold" fill="#0e6b3d" font-family="sans-serif">CG nominal ✓</text>
  <text x="498.36896" y="247.0434544" font-size="8.5" fill="#0e6b3d" font-family="sans-serif">5.26 cm dari LE · 30.3% MAC</text>
  <text x="384.5" y="179.7" text-anchor="end" font-size="9" fill="#1D9E75" font-family="sans-serif">MAC</text>
  <text x="384.5" y="191.7" text-anchor="end" font-size="8" fill="#1D9E75" font-family="sans-serif">17.4cm</text>
  <line x1="195.50943999999998" y1="150" x2="195.50943999999998" y2="170.4" stroke="#0e6b3d" stroke-width="0.9"/>
  <line x1="191.50943999999998" y1="150" x2="199.50943999999998" y2="150" stroke="#0e6b3d" stroke-width="0.9"/>
  <line x1="191.50943999999998" y1="170.4" x2="199.50943999999998" y2="170.4" stroke="#0e6b3d" stroke-width="0.9"/>
  <text x="189.50943999999998" y="164.2" text-anchor="end" font-size="9" fill="#0e6b3d" font-family="sans-serif">5.26cm</text>
  <text x="233.8" y="157.1" text-anchor="middle" font-size="9" fill="#378ADD" font-family="sans-serif">fwd</text>
  <text x="201.7" y="192.2" text-anchor="middle" font-size="9" fill="#0e6b3d" font-family="sans-serif">nom</text>
  <line x1="131.6" y1="104" x2="488.4" y2="104" stroke="#888780" stroke-width="0.8"/>
  <line x1="131.6" y1="99" x2="131.6" y2="109" stroke="#888780" stroke-width="0.8"/>
  <line x1="488.4" y1="99" x2="488.4" y2="109" stroke="#888780" stroke-width="0.8"/>
  <text x="310" y="96" text-anchor="middle" font-size="11" fill="#888780" font-family="sans-serif">← wingspan 92.7 cm →</text>
  <line x1="95.63103999999998" y1="150" x2="95.63103999999998" y2="227.4" stroke="#888780" stroke-width="0.8"/>
  <line x1="91.63103999999998" y1="150" x2="99.63103999999998" y2="150" stroke="#888780" stroke-width="0.8"/>
  <line x1="91.63103999999998" y1="227.4" x2="99.63103999999998" y2="227.4" stroke="#888780" stroke-width="0.8"/>
  <text x="89.63103999999998" y="192.7" text-anchor="end" font-size="9" fill="#888780" font-family="sans-serif">root 20.1cm</text>
  <line x1="496.36896" y1="150" x2="496.36896" y2="206.3" stroke="#888780" stroke-width="0.8"/>
  <line x1="492.36896" y1="150" x2="500.36896" y2="150" stroke="#888780" stroke-width="0.8"/>
  <line x1="492.36896" y1="206.3" x2="500.36896" y2="206.3" stroke="#888780" stroke-width="0.8"/>
  <text x="502.36896" y="182.2" font-size="9" fill="#888780" font-family="sans-serif">tip 14.6cm</text>
  <line x1="310" y1="239.44421894736843" x2="394.5" y2="239.44421894736843" stroke="#1D9E75" stroke-width="0.8"/>
  <line x1="310" y1="235.44421894736843" x2="310" y2="243.44421894736843" stroke="#1D9E75" stroke-width="0.8"/>
  <line x1="394.5" y1="235.44421894736843" x2="394.5" y2="243.44421894736843" stroke="#1D9E75" stroke-width="0.8"/>
  <text x="352.2" y="252.44421894736843" text-anchor="middle" font-size="9" fill="#1D9E75" font-family="sans-serif">MAC station: 21.9 cm dari CL</text>
  <text x="292" y="145" text-anchor="end" font-size="9" fill="#2a5a8a" opacity="0.7" font-family="sans-serif">LE</text>
  <text x="292" y="241.4" text-anchor="end" font-size="9" fill="#2a5a8a" opacity="0.7" font-family="sans-serif">TE</text>
  <rect x="28" y="271.4442189473684" width="762" height="90" fill="#e6f4ee" rx="6" stroke="#0e6b3d" stroke-width="0.8"/>
  <text x="44" y="287.4442189473684" font-size="10" font-weight="bold" fill="#0e6b3d" font-family="sans-serif">Cara menyeimbangkan:</text>
  <text x="44" y="301.4442189473684" font-size="9" fill="#444441" font-family="sans-serif">1. Tandai 21.9 cm dari CL di kanan dan kiri → posisi MAC station</text>
  <text x="44" y="315.4442189473684" font-size="9" fill="#444441" font-family="sans-serif">2. Ukur 5.26 cm dari LE (tepi depan sayap) ke belakang → titik nominal ✓</text>
  <text x="44" y="329.4442189473684" font-size="9" fill="#444441" font-family="sans-serif">3. Tumpukan UAV lengkap di 2 jari secara simetris pada kedua titik</text>
  <text x="44" y="343.4442189473684" font-size="9" fill="#444441" font-family="sans-serif">4. Hidung turun ringan = CG benar ✓   |   Ekor turun = geser baterai ke depan</text>
  <line x1="488" y1="279.4442189473684" x2="488" y2="355.4442189473684" stroke="#0e6b3d" stroke-width="0.5" opacity="0.4"/>
  <text x="500" y="287.4442189473684" font-size="10" font-weight="bold" fill="#0e6b3d" font-family="sans-serif">Referensi jarak dari LE:</text>
  <circle cx="505" cy="300.4442189473684" r="5" fill="#ffffff" stroke="#378ADD" stroke-width="2"/><circle cx="505" cy="300.4442189473684" r="2" fill="#378ADD"/>
  <text x="516" y="303.4442189473684" font-size="9" fill="#378ADD" font-weight="bold" font-family="sans-serif">CG fwd:</text>
  <text x="516" y="313.4442189473684" font-size="8.5" fill="#444441" font-family="sans-serif">4.95 cm  (28.5% MAC)</text>
  <circle cx="505" cy="318.4442189473684" r="5" fill="#ffffff" stroke="#0e6b3d" stroke-width="2"/><circle cx="505" cy="318.4442189473684" r="2" fill="#0e6b3d"/>
  <text x="516" y="321.4442189473684" font-size="9" fill="#0e6b3d" font-weight="bold" font-family="sans-serif">CG nominal ✓:</text>
  <text x="516" y="331.4442189473684" font-size="8.5" fill="#444441" font-family="sans-serif">5.26 cm  (30.3% MAC)</text>
  <circle cx="505" cy="336.4442189473684" r="5" fill="#ffffff" stroke="#BA7517" stroke-width="2"/><circle cx="505" cy="336.4442189473684" r="2" fill="#BA7517"/>
  <text x="516" y="339.4442189473684" font-size="9" fill="#BA7517" font-weight="bold" font-family="sans-serif">CG aft (maks):</text>
  <text x="516" y="349.4442189473684" font-size="8.5" fill="#444441" font-family="sans-serif">5.87 cm  (33.8% MAC)</text></svg>