<svg xmlns="http://www.w3.org/2000/svg" viewBox="0 0 900 580" width="900" height="580">
  <!-- Background -->
  <rect width="900" height="580" fill="#f0f4f8"/>

  <!-- Title -->
  <text x="450" y="28" text-anchor="middle" font-family="Arial" font-size="17" font-weight="bold" fill="#1a202c">Physical Architecture — HITL Setup</text>

  <!-- ═══════════ MONITOR ═══════════ -->
  <rect x="320" y="48" width="260" height="165" rx="8" fill="#2d3748" stroke="#1a202c" stroke-width="2"/>
  <rect x="330" y="57" width="240" height="147" rx="4" fill="#87ceeb"/>
  <rect x="330" y="130" width="240" height="74" rx="0" fill="#5d8a3c"/>
  <rect x="330" y="125" width="240" height="8" fill="#6ab04c"/>
  <!-- Runway -->
  <line x1="440" y1="133" x2="420" y2="204" stroke="#ccc" stroke-width="3" stroke-dasharray="8,6"/>
  <line x1="460" y1="133" x2="480" y2="204" stroke="#ccc" stroke-width="3" stroke-dasharray="8,6"/>
  <!-- Aircraft on screen -->
  <polygon points="450,90 440,108 460,108" fill="#e07b39" opacity="0.9"/>
  <text x="450" y="82" text-anchor="middle" font-family="Arial" font-size="10" fill="#1a3a5c" font-weight="bold">X-Plane</text>
  <!-- Monitor stand -->
  <rect x="436" y="213" width="28" height="22" fill="#4a5568"/>
  <rect x="395" y="234" width="110" height="11" rx="4" fill="#4a5568"/>
  <text x="450" y="260" text-anchor="middle" font-family="Arial" font-size="12" fill="#2d3748" font-weight="bold">Monitor</text>

  <!-- ═══════════ AIRFRAME — Nano Talon 900mm (flying wing, pusher, top-down) ═══════════ -->
  <!-- Wing left — wider for 900mm span -->
  <path d="M 450,345 L 172,410 L 208,442 L 450,372 Z" fill="#d4c9b0" stroke="#8b7355" stroke-width="2"/>
  <!-- Wing right -->
  <path d="M 450,345 L 728,410 L 692,442 L 450,372 Z" fill="#d4c9b0" stroke="#8b7355" stroke-width="2"/>
  <!-- Wing shading -->
  <path d="M 450,345 L 172,410 L 208,427 L 450,358 Z" fill="#e2d6be" opacity="0.5"/>
  <path d="M 450,345 L 728,410 L 692,427 L 450,358 Z" fill="#e2d6be" opacity="0.5"/>
  <!-- Fuselage -->
  <ellipse cx="450" cy="378" rx="20" ry="36" fill="#e8e0d0" stroke="#8b7355" stroke-width="2"/>
  <!-- Camera lens (nose, pointing up = toward monitor) -->
  <circle cx="450" cy="343" r="11" fill="#222" stroke="#555" stroke-width="2"/>
  <circle cx="450" cy="343" r="5" fill="#4a90d9"/>
  <!-- Pusher motor (rear, single) -->
  <circle cx="450" cy="414" r="13" fill="#333" stroke="#111" stroke-width="2"/>
  <circle cx="450" cy="414" r="6" fill="#777"/>
  <!-- Prop lines (pusher, horizontal) -->
  <line x1="434" y1="414" x2="466" y2="414" stroke="#bbb" stroke-width="2.5"/>
  <line x1="450" y1="401" x2="450" y2="427" stroke="#bbb" stroke-width="2.5"/>
  <!-- Flight Controller chip -->
  <rect x="438" y="360" width="24" height="20" rx="3" fill="#e07b39" stroke="#b85c1a" stroke-width="1.5"/>
  <text x="450" y="374" text-anchor="middle" font-family="Arial" font-size="7" fill="white" font-weight="bold">FC</text>
  <!-- RC Receiver chip -->
  <rect x="438" y="383" width="24" height="15" rx="3" fill="#5ba3e0" stroke="#2c6fad" stroke-width="1.5"/>
  <text x="450" y="394" text-anchor="middle" font-family="Arial" font-size="6.5" fill="white" font-weight="bold">RX</text>
  <!-- Label -->
  <text x="450" y="465" text-anchor="middle" font-family="Arial" font-size="13" fill="#2d3748" font-weight="bold">Nano Talon 900 mm</text>
  <text x="450" y="481" text-anchor="middle" font-family="Arial" font-size="11" fill="#4a5568">Flight Controller · RC Receiver · Kamera</text>

  <!-- ═══════════ LAPTOP (bottom right) ═══════════ -->
  <!-- Screen -->
  <rect x="628" y="348" width="210" height="140" rx="6" fill="#2d3748" stroke="#1a202c" stroke-width="2"/>
  <rect x="637" y="357" width="192" height="122" rx="3" fill="#0f1923"/>
  <!-- QGC map area -->
  <rect x="643" y="363" width="90" height="70" rx="2" fill="#0d2137"/>
  <rect x="643" y="363" width="90" height="70" rx="2" fill="#1a4a6e" opacity="0.5"/>
  <circle cx="690" cy="398" r="9" fill="#e07b39" opacity="0.85"/>
  <circle cx="690" cy="398" r="4" fill="#fff" opacity="0.6"/>
  <!-- Side panel -->
  <text x="745" y="376" font-family="Arial" font-size="9" fill="#2ecc71" font-weight="bold">QGroundControl</text>
  <rect x="737" y="380" width="84" height="1" fill="#2ecc71" opacity="0.3"/>
  <text x="745" y="393" font-family="Arial" font-size="8.5" fill="#3a9e8a">MAVProxy</text>
  <text x="745" y="407" font-family="Arial" font-size="8.5" fill="#e05c5c">Seeker</text>
  <text x="745" y="421" font-family="Arial" font-size="8.5" fill="#7b5ea7">X-Plane</text>
  <!-- Altitude bar mock -->
  <rect x="643" y="437" width="90" height="8" rx="2" fill="#1a4a6e"/>
  <rect x="643" y="437" width="55" height="8" rx="2" fill="#2ecc71" opacity="0.7"/>
  <!-- Keyboard hinge -->
  <rect x="618" y="487" width="230" height="12" rx="4" fill="#4a5568"/>
  <!-- Keyboard base -->
  <rect x="610" y="499" width="246" height="20" rx="5" fill="#4a5568"/>
  <text x="733" y="532" text-anchor="middle" font-family="Arial" font-size="13" fill="#2d3748" font-weight="bold">Laptop</text>

  <!-- ═══════════ RC TRANSMITTER (bottom left) ═══════════ -->
  <!-- Body -->
  <rect x="52" y="355" width="168" height="125" rx="12" fill="#3a3a4a" stroke="#222" stroke-width="2"/>
  <!-- Antenna left -->
  <rect x="72" y="330" width="10" height="34" rx="4" fill="#2a2a38" stroke="#111" stroke-width="1.5"/>
  <!-- Antenna right -->
  <rect x="190" y="330" width="10" height="34" rx="4" fill="#2a2a38" stroke="#111" stroke-width="1.5"/>
  <!-- Screen -->
  <rect x="90" y="367" width="92" height="52" rx="5" fill="#111827" stroke="#555" stroke-width="1"/>
  <text x="136" y="386" text-anchor="middle" font-family="Arial" font-size="9" fill="#4a90d9" font-weight="bold">RC TX</text>
  <text x="136" y="400" text-anchor="middle" font-family="Arial" font-size="8" fill="#888">2.4 GHz</text>
  <text x="136" y="413" text-anchor="middle" font-family="Arial" font-size="8" fill="#666">MODE 2</text>
  <!-- Left gimbal -->
  <circle cx="78" cy="442" r="20" fill="#2a2a38" stroke="#555" stroke-width="1.5"/>
  <circle cx="78" cy="442" r="8" fill="#666"/>
  <!-- Right gimbal -->
  <circle cx="194" cy="442" r="20" fill="#2a2a38" stroke="#555" stroke-width="1.5"/>
  <circle cx="194" cy="442" r="8" fill="#666"/>
  <!-- Buttons row -->
  <rect x="95" y="430" width="82" height="8" rx="3" fill="#222"/>
  <circle cx="110" cy="434" r="5" fill="#e05c5c"/>
  <circle cx="125" cy="434" r="5" fill="#f0c040"/>
  <circle cx="140" cy="434" r="5" fill="#2ecc71"/>
  <circle cx="155" cy="434" r="5" fill="#4a90d9"/>
  <!-- Trim sliders -->
  <rect x="56" y="460" width="5" height="18" rx="2" fill="#555"/>
  <rect x="211" y="460" width="5" height="18" rx="2" fill="#555"/>
  <text x="136" y="498" text-anchor="middle" font-family="Arial" font-size="13" fill="#2d3748" font-weight="bold">RC Transmitter</text>
  <text x="136" y="513" text-anchor="middle" font-family="Arial" font-size="11" fill="#4a5568">(pilot)</text>

  <!-- ═══════════ CONNECTION LINES ═══════════ -->
  <!-- RF: RC TX -> Airframe RX (wavy) -->
  <path d="M 222,400 Q 255,378 290,390 Q 330,404 370,398" stroke="#4a90d9" stroke-width="2" stroke-dasharray="7,4" fill="none"/>
  <polygon points="370,394 362,400 362,396" fill="#4a90d9"/>
  <text x="280" y="376" text-anchor="middle" font-family="Arial" font-size="10" fill="#4a90d9" font-weight="bold">2.4 GHz RF</text>

  <!-- USB serial: FC -> Laptop -->
  <path d="M 474,385 Q 540,378 618,415" stroke="#e07b39" stroke-width="2.5" fill="none"/>
  <polygon points="616,411 620,420 610,417" fill="#e07b39"/>
  <text x="548" y="378" text-anchor="middle" font-family="Arial" font-size="10" fill="#e07b39" font-weight="bold">USB serial</text>

  <!-- Visual: Monitor bottom -> Airframe camera (dotted) -->
  <line x1="450" y1="271" x2="450" y2="327" stroke="#7b5ea7" stroke-width="2" stroke-dasharray="5,4"/>
  <polygon points="450,333 444,323 456,323" fill="#7b5ea7"/>
  <text x="464" y="306" font-family="Arial" font-size="10" fill="#7b5ea7" font-weight="bold">visual</text>
</svg>
