<svg xmlns="http://www.w3.org/2000/svg" viewBox="0 0 640 210"><rect width="640" height="210" fill="#ffffff" rx="10" stroke="#d4d2c8" stroke-width="0.8"/><text x="320" y="26" text-anchor="middle" font-size="13" font-weight="bold" fill="#444441" font-family="sans-serif">Power Budget — Satria Nano</text><text x="320" y="40" text-anchor="middle" font-size="10" fill="#888780" font-family="sans-serif">MTOW 3.50 lb · semi 1.52 ft · sys eff 60.6%</text>  <rect x="190" y="52" width="430" height="26" fill="#f5f5f5" rx="3"/>
  <rect x="190" y="52" width="88" height="26" fill="#1D9E75" rx="3" opacity="0.88"/>
  <text x="186" y="69" text-anchor="end" font-size="10" fill="#444441" font-family="sans-serif">Cruise (16.3 m/s)</text>
  <text x="283" y="69" font-size="10" fill="#1D9E75" font-weight="bold" font-family="sans-serif">36 W = 0.048 HP</text>
  <rect x="190" y="90" width="430" height="26" fill="#f5f5f5" rx="3"/>
  <rect x="190" y="90" width="243" height="26" fill="#BA7517" rx="3" opacity="0.88"/>
  <text x="186" y="107" text-anchor="end" font-size="10" fill="#444441" font-family="sans-serif">Climb 4m/s (99 W)</text>
  <text x="438" y="107" font-size="10" fill="#BA7517" font-weight="bold" font-family="sans-serif">99 W = 0.133 HP</text>
  <rect x="190" y="128" width="430" height="26" fill="#f5f5f5" rx="3"/>
  <rect x="190" y="128" width="302" height="26" fill="#D85A30" rx="3" opacity="0.88"/>
  <text x="186" y="145" text-anchor="end" font-size="10" fill="#444441" font-family="sans-serif">Peak ×1.25 (123 W)</text>
  <text x="497" y="145" font-size="10" fill="#D85A30" font-weight="bold" font-family="sans-serif">123 W = 0.165 HP</text>
  <rect x="190" y="166" width="430" height="26" fill="#f5f5f5" rx="3"/>
  <rect x="190" y="166" width="363" height="26" fill="#D85A30" rx="3" opacity="0.88"/>
  <text x="186" y="183" text-anchor="end" font-size="10" fill="#444441" font-family="sans-serif">Motor rating min (148 W)</text>
  <text x="558" y="183" font-size="10" fill="#D85A30" font-weight="bold" font-family="sans-serif">148 W = 0.198 HP</text></svg>