<svg xmlns="http://www.w3.org/2000/svg" viewBox="0 0 680 250"><rect width="680" height="250" fill="#ffffff" rx="10" stroke="#d4d2c8" stroke-width="0.8"/><text x="340" y="19" text-anchor="middle" font-size="13" font-weight="bold" fill="#444441" font-family="sans-serif">CG Envelope — Satria Nano (Final)</text><text x="340" y="33" text-anchor="middle" font-size="10" fill="#888780" font-family="sans-serif">NACA 2412 · Semi 1.52 ft · root 0.66 ft · tip 0.48 ft · MAC 17.37 cm</text>  <rect x="411" y="96" width="39" height="44" fill="#e6f4ee" rx="3" opacity="0.8"/>
  <text x="430" y="123" text-anchor="middle" font-size="9" fill="#0e6b3d" font-weight="bold" font-family="sans-serif">safe zone</text>
  <line x1="50" y1="118" x2="630" y2="118" stroke="#d4d2c8" stroke-width="1.5"/>
  <text x="46" y="123" text-anchor="end" font-size="9" fill="#888780" font-family="sans-serif">nose</text>
  <text x="634" y="123" text-anchor="start" font-size="9" fill="#888780" font-family="sans-serif">tail</text>
  <line x1="125" y1="114" x2="125" y2="122" stroke="#888780" stroke-width="0.8"/>
  <text x="125" y="160" text-anchor="middle" font-size="8" fill="#888780" font-family="sans-serif">0.40</text>
  <line x1="190" y1="114" x2="190" y2="122" stroke="#888780" stroke-width="0.8"/>
  <text x="190" y="160" text-anchor="middle" font-size="8" fill="#888780" font-family="sans-serif">0.45</text>
  <line x1="255" y1="114" x2="255" y2="122" stroke="#888780" stroke-width="0.8"/>
  <text x="255" y="160" text-anchor="middle" font-size="8" fill="#888780" font-family="sans-serif">0.50</text>
  <line x1="320" y1="114" x2="320" y2="122" stroke="#888780" stroke-width="0.8"/>
  <text x="320" y="160" text-anchor="middle" font-size="8" fill="#888780" font-family="sans-serif">0.55</text>
  <line x1="385" y1="114" x2="385" y2="122" stroke="#888780" stroke-width="0.8"/>
  <text x="385" y="160" text-anchor="middle" font-size="8" fill="#888780" font-family="sans-serif">0.60</text>
  <line x1="450" y1="114" x2="450" y2="122" stroke="#888780" stroke-width="0.8"/>
  <text x="450" y="160" text-anchor="middle" font-size="8" fill="#888780" font-family="sans-serif">0.65</text>
  <line x1="515" y1="114" x2="515" y2="122" stroke="#888780" stroke-width="0.8"/>
  <text x="515" y="160" text-anchor="middle" font-size="8" fill="#888780" font-family="sans-serif">0.70</text>
  <line x1="580" y1="114" x2="580" y2="122" stroke="#888780" stroke-width="0.8"/>
  <text x="580" y="160" text-anchor="middle" font-size="8" fill="#888780" font-family="sans-serif">0.75</text>
  <defs><marker id="arr" viewBox="0 0 10 10" refX="9" refY="5" markerWidth="5" markerHeight="5" orient="auto"><path d="M1 2L9 5L1 8" fill="none" stroke="#0e6b3d" stroke-width="1.5" stroke-linejoin="round"/></marker></defs>
  <line x1="426" y1="178" x2="494" y2="178" stroke="#0e6b3d" stroke-width="1.2" stroke-dasharray="3,2" marker-end="url(#arr)"/>
  <text x="460" y="192" text-anchor="middle" font-size="9" fill="#0e6b3d" font-family="sans-serif">static margin ~9.7% MAC (nominal)</text>
  <line x1="199" y1="82" x2="199" y2="114" stroke="#888780" stroke-width="1.2"/>
  <text x="199" y="68" text-anchor="middle" font-size="9" fill="#888780" font-family="sans-serif">LE MAC</text>
  <text x="199" y="80" text-anchor="middle" font-size="8" fill="#888780" font-family="sans-serif">0.4575 ft</text>
  <line x1="411" y1="58" x2="411" y2="114" stroke="#378ADD" stroke-width="1.8"/>
  <text x="411" y="42" text-anchor="middle" font-size="10" font-weight="bold" fill="#378ADD" font-family="sans-serif">fwd limit</text>
  <text x="411" y="55" text-anchor="middle" font-size="8.5" fill="#378ADD" font-family="sans-serif">0.62 ft · 28.5%</text>
  <line x1="424" y1="122" x2="424" y2="126" stroke="#0e6b3d" stroke-width="2.4"/>
  <text x="424" y="130" text-anchor="middle" font-size="10" font-weight="bold" fill="#0e6b3d" font-family="sans-serif">nominal ✓</text>
  <text x="424" y="142" text-anchor="middle" font-size="8.5" fill="#0e6b3d" font-family="sans-serif">0.63 ft · 30.3%</text>
  <line x1="450" y1="82" x2="450" y2="114" stroke="#BA7517" stroke-width="2.0"/>
  <text x="450" y="68" text-anchor="middle" font-size="10" font-weight="bold" fill="#BA7517" font-family="sans-serif">aft limit</text>
  <text x="450" y="80" text-anchor="middle" font-size="8.5" fill="#BA7517" font-family="sans-serif">0.65 ft · 33.8%</text>
  <line x1="496" y1="122" x2="496" y2="126" stroke="#888780" stroke-width="1.0"/>
  <text x="496" y="130" text-anchor="middle" font-size="9" fill="#888780" font-family="sans-serif">NP est.</text>
  <text x="496" y="142" text-anchor="middle" font-size="8" fill="#888780" font-family="sans-serif">~40% MAC</text></svg>