<svg xmlns="http://www.w3.org/2000/svg" viewBox="0 0 680 250">
  <rect width="680" height="250" fill="#ffffff" rx="10" stroke="#d4d2c8" stroke-width="0.8"/>
  <text x="340" y="19" text-anchor="middle" font-size="13" font-weight="bold" fill="#444441" font-family="sans-serif">CG Envelope — Satria Talon</text>
  <text x="340" y="33" text-anchor="middle" font-size="10" fill="#888780" font-family="sans-serif">NACA 2412 · Semi 2.13 ft · Empty 3.00 lb · MTOW 5.25 lb · Aft limit diperketat 1.00→0.96 ft</text>
  <rect x="386" y="92" width="78" height="52" fill="#e6f4ee" rx="3"/>
  <text x="425" y="124" text-anchor="middle" font-size="9" fill="#0e6b3d" font-weight="bold" font-family="sans-serif">safe zone</text>
  <line x1="50" y1="118" x2="630" y2="118" stroke="#d4d2c8" stroke-width="1.5"/>
  <text x="46" y="123" text-anchor="end" font-size="9" fill="#888780" font-family="sans-serif">nose</text>
  <text x="634" y="123" text-anchor="start" font-size="9" fill="#888780" font-family="sans-serif">tail</text>
  <line x1="137" y1="114" x2="137" y2="122" stroke="#888780" stroke-width="0.8"/>
  <text x="137" y="160" text-anchor="middle" font-size="8" fill="#888780" font-family="sans-serif">0.75</text>
  <line x1="215" y1="114" x2="215" y2="122" stroke="#888780" stroke-width="0.8"/>
  <text x="215" y="160" text-anchor="middle" font-size="8" fill="#888780" font-family="sans-serif">0.80</text>
  <line x1="293" y1="114" x2="293" y2="122" stroke="#888780" stroke-width="0.8"/>
  <text x="293" y="160" text-anchor="middle" font-size="8" fill="#888780" font-family="sans-serif">0.85</text>
  <line x1="371" y1="114" x2="371" y2="122" stroke="#888780" stroke-width="0.8"/>
  <text x="371" y="160" text-anchor="middle" font-size="8" fill="#888780" font-family="sans-serif">0.90</text>
  <line x1="448" y1="114" x2="448" y2="122" stroke="#888780" stroke-width="0.8"/>
  <text x="448" y="160" text-anchor="middle" font-size="8" fill="#888780" font-family="sans-serif">0.95</text>
  <line x1="526" y1="114" x2="526" y2="122" stroke="#888780" stroke-width="0.8"/>
  <text x="526" y="160" text-anchor="middle" font-size="8" fill="#888780" font-family="sans-serif">1.00</text>
  <line x1="604" y1="114" x2="604" y2="122" stroke="#888780" stroke-width="0.8"/>
  <text x="604" y="160" text-anchor="middle" font-size="8" fill="#888780" font-family="sans-serif">1.05</text>
  <defs><marker id="arr" viewBox="0 0 10 10" refX="9" refY="5" markerWidth="5" markerHeight="5" orient="auto"><path d="M1 2L9 5L1 8" fill="none" stroke="#0e6b3d" stroke-width="1.5" stroke-linejoin="round"/></marker></defs>
  <line x1="404" y1="178" x2="526" y2="178" stroke="#0e6b3d" stroke-width="1.2" stroke-dasharray="3,2" marker-end="url(#arr)"/>
  <text x="465" y="192" text-anchor="middle" font-size="9" fill="#0e6b3d" font-family="sans-serif">static margin ~12.1% MAC</text>
  <line x1="102" y1="82" x2="102" y2="114" stroke="#888780" stroke-width="1.2"/>
  <text x="102" y="67" text-anchor="middle" font-size="9" fill="#888780" font-family="sans-serif">LE MAC</text>
  <text x="102" y="79" text-anchor="middle" font-size="8" fill="#888780" font-family="sans-serif">0.7275 ft</text>
  <line x1="386" y1="58" x2="386" y2="114" stroke="#378ADD" stroke-width="1.8"/>
  <text x="386" y="42" text-anchor="middle" font-size="10" font-weight="bold" fill="#378ADD" font-family="sans-serif">fwd limit</text>
  <text x="386" y="55" text-anchor="middle" font-size="8.5" fill="#378ADD" font-family="sans-serif">0.91 ft · 26.4%</text>
  <line x1="464" y1="82" x2="464" y2="114" stroke="#D85A30" stroke-width="1.8"/>
  <text x="464" y="67" text-anchor="middle" font-size="10" font-weight="bold" fill="#D85A30" font-family="sans-serif">aft limit</text>
  <text x="464" y="79" text-anchor="middle" font-size="8.5" fill="#D85A30" font-family="sans-serif">0.96 ft · 33.7%</text>
  <line x1="402" y1="122" x2="402" y2="126" stroke="#0e6b3d" stroke-width="2.4"/>
  <text x="402" y="130" text-anchor="middle" font-size="10" font-weight="bold" fill="#0e6b3d" font-family="sans-serif">nominal ✓</text>
  <text x="402" y="142" text-anchor="middle" font-size="8.5" fill="#0e6b3d" font-family="sans-serif">0.92 ft · 27.9%</text>
  <line x1="528" y1="122" x2="528" y2="126" stroke="#888780" stroke-width="1.0"/>
  <text x="528" y="130" text-anchor="middle" font-size="9" fill="#888780" font-family="sans-serif">NP est.</text>
  <text x="528" y="142" text-anchor="middle" font-size="8" fill="#888780" font-family="sans-serif">~40% MAC</text>
</svg>