<svg xmlns="http://www.w3.org/2000/svg" viewBox="0 0 860 530"><rect width="860" height="530" fill="#ffffff" rx="10" stroke="#d4d2c8" stroke-width="0.8"/><text x="430" y="22" text-anchor="middle" font-size="14" font-weight="bold" fill="#444441" font-family="sans-serif">Titik Seimbang — Satria Talon</text><text x="430" y="36" text-anchor="middle" font-size="10" fill="#888780" font-family="sans-serif">Semi 2.13 ft · Wingspan 129.8 cm · NACA 2412 · root 23.8cm · tip 18.3cm · sweep 0°</text>  <polygon points="320.0,152.0 323.6,152.0 327.1,152.0 330.7,152.0 334.3,152.0 337.9,152.0 341.4,152.0 345.0,152.0 348.6,152.0 352.1,152.0 355.7,152.0 359.3,152.0 362.8,152.0 366.4,152.0 370.0,152.0 373.6,152.0 377.1,152.0 380.7,152.0 384.3,152.0 387.8,152.0 391.4,152.0 395.0,152.0 398.6,152.0 402.1,152.0 405.7,152.0 409.3,152.0 412.8,152.0 416.4,152.0 420.0,152.0 423.6,152.0 427.1,152.0 430.7,152.0 434.3,152.0 437.8,152.0 441.4,152.0 445.0,152.0 448.5,152.0 452.1,152.0 455.7,152.0 459.3,152.0 462.8,152.0 466.4,152.0 470.0,152.0 473.5,152.0 477.1,152.0 480.7,152.0 484.3,152.0 487.8,152.0 491.4,152.0 495.0,152.0 498.5,152.0 502.1,152.0 505.7,152.0 509.2,152.0 512.8,152.0 516.4,152.0 520.0,152.0 523.5,152.0 527.1,152.0 530.7,152.0 534.2,152.0 534.2,212.4 530.7,212.7 527.1,213.0 523.5,213.3 520.0,213.6 516.4,213.9 512.8,214.2 509.2,214.5 505.7,214.8 502.1,215.1 498.5,215.4 495.0,215.7 491.4,216.0 487.8,216.3 484.3,216.6 480.7,216.9 477.1,217.2 473.5,217.5 470.0,217.8 466.4,218.1 462.8,218.4 459.3,218.7 455.7,219.0 452.1,219.3 448.5,219.6 445.0,219.9 441.4,220.2 437.8,220.5 434.3,220.8 430.7,221.1 427.1,221.4 423.6,221.7 420.0,222.0 416.4,222.3 412.8,222.6 409.3,222.9 405.7,223.2 402.1,223.5 398.6,223.8 395.0,224.1 391.4,224.4 387.8,224.7 384.3,225.0 380.7,225.3 377.1,225.6 373.6,225.9 370.0,226.2 366.4,226.5 362.8,226.8 359.3,227.1 355.7,227.4 352.1,227.7 348.6,228.0 345.0,228.3 341.4,228.6 337.9,228.9 334.3,229.2 330.7,229.6 327.1,229.9 323.6,230.2 320.0,230.5" fill="#b8cce0" stroke="#1a4a7a" stroke-width="1.5" opacity="0.85"/>
  <polygon points="320.0,152.0 316.4,152.0 312.9,152.0 309.3,152.0 305.7,152.0 302.1,152.0 298.6,152.0 295.0,152.0 291.4,152.0 287.9,152.0 284.3,152.0 280.7,152.0 277.2,152.0 273.6,152.0 270.0,152.0 266.4,152.0 262.9,152.0 259.3,152.0 255.7,152.0 252.2,152.0 248.6,152.0 245.0,152.0 241.4,152.0 237.9,152.0 234.3,152.0 230.7,152.0 227.2,152.0 223.6,152.0 220.0,152.0 216.4,152.0 212.9,152.0 209.3,152.0 205.7,152.0 202.2,152.0 198.6,152.0 195.0,152.0 191.5,152.0 187.9,152.0 184.3,152.0 180.7,152.0 177.2,152.0 173.6,152.0 170.0,152.0 166.5,152.0 162.9,152.0 159.3,152.0 155.7,152.0 152.2,152.0 148.6,152.0 145.0,152.0 141.5,152.0 137.9,152.0 134.3,152.0 130.8,152.0 127.2,152.0 123.6,152.0 120.0,152.0 116.5,152.0 112.9,152.0 109.3,152.0 105.8,152.0 105.8,212.4 109.3,212.7 112.9,213.0 116.5,213.3 120.0,213.6 123.6,213.9 127.2,214.2 130.8,214.5 134.3,214.8 137.9,215.1 141.5,215.4 145.0,215.7 148.6,216.0 152.2,216.3 155.7,216.6 159.3,216.9 162.9,217.2 166.5,217.5 170.0,217.8 173.6,218.1 177.2,218.4 180.7,218.7 184.3,219.0 187.9,219.3 191.5,219.6 195.0,219.9 198.6,220.2 202.2,220.5 205.7,220.8 209.3,221.1 212.9,221.4 216.4,221.7 220.0,222.0 223.6,222.3 227.2,222.6 230.7,222.9 234.3,223.2 237.9,223.5 241.4,223.8 245.0,224.1 248.6,224.4 252.2,224.7 255.7,225.0 259.3,225.3 262.9,225.6 266.4,225.9 270.0,226.2 273.6,226.5 277.2,226.8 280.7,227.1 284.3,227.4 287.9,227.7 291.4,228.0 295.0,228.3 298.6,228.6 302.1,228.9 305.7,229.2 309.3,229.6 312.9,229.9 316.4,230.2 320.0,230.5" fill="#b8cce0" stroke="#1a4a7a" stroke-width="1.5" opacity="0.85"/>
  <rect x="306" y="157.9" width="28" height="66.7" fill="#c8b888" stroke="#8a7050" stroke-width="1" rx="5" opacity="0.9"/>
  <line x1="320" y1="124" x2="320" y2="242.45551999999998" stroke="#888780" stroke-width="0.6" stroke-dasharray="5,4" opacity="0.4"/>
  <line x1="422.5" y1="152" x2="422.5" y2="221.8" stroke="#1D9E75" stroke-width="1.3" stroke-dasharray="4,3"/>
  <line x1="217.5" y1="152" x2="217.5" y2="221.8" stroke="#1D9E75" stroke-width="1.3" stroke-dasharray="4,3"/>
  <line x1="105.8" y1="170.5" x2="534.2" y2="170.5" stroke="#378ADD" stroke-width="0.9" stroke-dasharray="6,3" opacity="0.55"/>
  <line x1="105.8" y1="171.5" x2="534.2" y2="171.5" stroke="#0e6b3d" stroke-width="1.1" stroke-dasharray="6,3" opacity="0.65"/>
  <circle cx="397.1" cy="170.4" r="7" fill="#ffffff" stroke="#378ADD" stroke-width="2.5"/>
  <circle cx="397.1" cy="170.4" r="2.5" fill="#378ADD"/>
  <circle cx="242.9" cy="170.4" r="7" fill="#ffffff" stroke="#378ADD" stroke-width="2.5"/>
  <circle cx="242.9" cy="170.4" r="2.5" fill="#378ADD"/>
  <circle cx="435.7" cy="171.4" r="8" fill="#ffffff" stroke="#0e6b3d" stroke-width="2.5"/>
  <circle cx="435.7" cy="171.4" r="2.5" fill="#0e6b3d"/>
  <circle cx="204.3" cy="171.4" r="8" fill="#ffffff" stroke="#0e6b3d" stroke-width="2.5"/>
  <circle cx="204.3" cy="171.4" r="2.5" fill="#0e6b3d"/>
  <line x1="397.1" y1="170.4" x2="397.1" y2="132" stroke="#378ADD" stroke-width="0.8" stroke-dasharray="3,2"/>
  <text x="397.1" y="116" text-anchor="middle" font-size="10" font-weight="bold" fill="#378ADD" font-family="sans-serif">CG fwd (first flight)</text>
  <text x="397.1" y="129" text-anchor="middle" font-size="8.5" fill="#378ADD" font-family="sans-serif">5.56 cm dari LE · 26.5% MAC</text>
  <line x1="435.7" y1="171.4" x2="540.24392" y2="240.6787552" stroke="#0e6b3d" stroke-width="0.8" stroke-dasharray="3,2"/>
  <text x="544.24392" y="240.6787552" font-size="10" font-weight="bold" fill="#0e6b3d" font-family="sans-serif">CG nominal ✓</text>
  <text x="544.24392" y="253.6787552" font-size="8.5" fill="#0e6b3d" font-family="sans-serif">5.87 cm dari LE · 27.9% MAC</text>
  <text x="412.5" y="182.9" text-anchor="end" font-size="9" fill="#1D9E75" font-family="sans-serif">MAC</text>
  <text x="412.5" y="194.9" text-anchor="end" font-size="8" fill="#1D9E75" font-family="sans-serif">21.0cm</text>
  <line x1="183.53551652173914" y1="152" x2="183.53551652173914" y2="171.5" stroke="#0e6b3d" stroke-width="0.9"/>
  <line x1="179.53551652173914" y1="152" x2="187.53551652173914" y2="152" stroke="#0e6b3d" stroke-width="0.9"/>
  <line x1="179.53551652173914" y1="171.5" x2="187.53551652173914" y2="171.5" stroke="#0e6b3d" stroke-width="0.9"/>
  <text x="177.53551652173914" y="165.7" text-anchor="end" font-size="9" fill="#0e6b3d" font-family="sans-serif">5.87cm</text>
  <text x="229.9" y="158.4" text-anchor="middle" font-size="9" fill="#378ADD" font-family="sans-serif">fwd</text>
  <text x="191.3" y="193.4" text-anchor="middle" font-size="9" fill="#0e6b3d" font-family="sans-serif">nom</text>
  <line x1="105.8" y1="104" x2="534.2" y2="104" stroke="#888780" stroke-width="0.8"/>
  <line x1="105.8" y1="99" x2="105.8" y2="109" stroke="#888780" stroke-width="0.8"/>
  <line x1="534.2" y1="99" x2="534.2" y2="109" stroke="#888780" stroke-width="0.8"/>
  <text x="320" y="96" text-anchor="middle" font-size="11" fill="#888780" font-family="sans-serif">← wingspan 129.8 cm →</text>
  <line x1="67.75608000000003" y1="152" x2="67.75608000000003" y2="230.5" stroke="#888780" stroke-width="0.8"/>
  <line x1="63.756080000000026" y1="152" x2="71.75608000000003" y2="152" stroke="#888780" stroke-width="0.8"/>
  <line x1="63.756080000000026" y1="230.5" x2="71.75608000000003" y2="230.5" stroke="#888780" stroke-width="0.8"/>
  <text x="61.756080000000026" y="195.2" text-anchor="end" font-size="9" fill="#888780" font-family="sans-serif">root 23.8cm</text>
  <line x1="542.24392" y1="152" x2="542.24392" y2="212.4" stroke="#888780" stroke-width="0.8"/>
  <line x1="538.24392" y1="152" x2="546.24392" y2="152" stroke="#888780" stroke-width="0.8"/>
  <line x1="538.24392" y1="212.4" x2="546.24392" y2="212.4" stroke="#888780" stroke-width="0.8"/>
  <text x="548.24392" y="186.2" font-size="9" fill="#888780" font-family="sans-serif">tip 18.3cm</text>
  <line x1="320" y1="245.7965495652174" x2="422.5" y2="245.7965495652174" stroke="#1D9E75" stroke-width="0.8"/>
  <line x1="320" y1="241.7965495652174" x2="320" y2="249.7965495652174" stroke="#1D9E75" stroke-width="0.8"/>
  <line x1="422.5" y1="241.7965495652174" x2="422.5" y2="249.7965495652174" stroke="#1D9E75" stroke-width="0.8"/>
  <text x="371.2" y="258.7965495652174" text-anchor="middle" font-size="9" fill="#1D9E75" font-family="sans-serif">MAC station: 31.0 cm dari CL</text>
  <text x="300" y="147" text-anchor="end" font-size="9" fill="#1a4a7a" opacity="0.7" font-family="sans-serif">LE</text>
  <text x="300" y="244.5" text-anchor="end" font-size="9" fill="#1a4a7a" opacity="0.7" font-family="sans-serif">TE</text>
  <rect x="28" y="279.7965495652174" width="800" height="90" fill="#e6f4ee" rx="6" stroke="#0e6b3d" stroke-width="0.8"/>
  <text x="44" y="295.7965495652174" font-size="10" font-weight="bold" fill="#0e6b3d" font-family="sans-serif">Cara menyeimbangkan:</text>
  <text x="44" y="309.7965495652174" font-size="9" fill="#444441" font-family="sans-serif">1. Tandai 31.0 cm dari CL di kanan dan kiri → posisi MAC station</text>
  <text x="44" y="323.7965495652174" font-size="9" fill="#444441" font-family="sans-serif">2. Ukur 5.87 cm dari LE di titik tersebut → CG nominal ✓</text>
  <text x="44" y="337.7965495652174" font-size="9" fill="#444441" font-family="sans-serif">3. Tumpukan UAV lengkap di 2 jari simetris pada kedua titik</text>
  <text x="44" y="351.7965495652174" font-size="9" fill="#444441" font-family="sans-serif">4. Hidung turun ringan = CG benar ✓   |   Ekor turun = geser baterai ke depan</text>
  <line x1="498" y1="287.7965495652174" x2="498" y2="363.7965495652174" stroke="#0e6b3d" stroke-width="0.5" opacity="0.4"/>
  <text x="510" y="295.7965495652174" font-size="10" font-weight="bold" fill="#0e6b3d" font-family="sans-serif">Referensi dari LE:</text>
  <circle cx="515" cy="308.7965495652174" r="5" fill="#ffffff" stroke="#378ADD" stroke-width="2"/><circle cx="515" cy="308.7965495652174" r="2" fill="#378ADD"/>
  <text x="526" y="311.7965495652174" font-size="9" fill="#378ADD" font-weight="bold" font-family="sans-serif">CG fwd:</text>
  <text x="526" y="321.7965495652174" font-size="8.5" fill="#444441" font-family="sans-serif">5.56 cm  (26.5% MAC)</text>
  <circle cx="515" cy="326.7965495652174" r="5" fill="#ffffff" stroke="#0e6b3d" stroke-width="2"/><circle cx="515" cy="326.7965495652174" r="2" fill="#0e6b3d"/>
  <text x="526" y="329.7965495652174" font-size="9" fill="#0e6b3d" font-weight="bold" font-family="sans-serif">CG nominal ✓:</text>
  <text x="526" y="339.7965495652174" font-size="8.5" fill="#444441" font-family="sans-serif">5.87 cm  (27.9% MAC)</text>
  <circle cx="515" cy="344.7965495652174" r="5" fill="#ffffff" stroke="#BA7517" stroke-width="2"/><circle cx="515" cy="344.7965495652174" r="2" fill="#BA7517"/>
  <text x="526" y="347.7965495652174" font-size="9" fill="#BA7517" font-weight="bold" font-family="sans-serif">CG aft (maks):</text>
  <text x="526" y="357.7965495652174" font-size="8.5" fill="#444441" font-family="sans-serif">7.09 cm  (33.7% MAC)</text></svg>