<svg xmlns="http://www.w3.org/2000/svg" viewBox="0 0 680 250"><rect width="680" height="250" fill="#ffffff" rx="10" stroke="#d4d2c8" stroke-width="0.8"/><text x="340" y="19" text-anchor="middle" font-size="13" font-weight="bold" fill="#444441" font-family="sans-serif">CG Envelope — Satria Talon</text><text x="340" y="33" text-anchor="middle" font-size="10" fill="#888780" font-family="sans-serif">NACA 2412 · Semi 2.13 ft · root 0.78 ft · tip 0.60 ft · MAC 21.03 cm</text>  <rect x="408" y="96" width="75" height="44" fill="#e6f4ee" rx="3" opacity="0.8"/>
  <text x="445" y="123" text-anchor="middle" font-size="9" fill="#0e6b3d" font-weight="bold" font-family="sans-serif">safe zone</text>
  <line x1="50" y1="118" x2="630" y2="118" stroke="#d4d2c8" stroke-width="1.5"/>
  <text x="46" y="123" text-anchor="end" font-size="9" fill="#888780" font-family="sans-serif">nose</text>
  <text x="634" y="123" text-anchor="start" font-size="9" fill="#888780" font-family="sans-serif">tail</text>
  <line x1="90" y1="114" x2="90" y2="122" stroke="#888780" stroke-width="0.8"/>
  <text x="90" y="160" text-anchor="middle" font-size="8" fill="#888780" font-family="sans-serif">0.70</text>
  <line x1="165" y1="114" x2="165" y2="122" stroke="#888780" stroke-width="0.8"/>
  <text x="165" y="160" text-anchor="middle" font-size="8" fill="#888780" font-family="sans-serif">0.75</text>
  <line x1="241" y1="114" x2="241" y2="122" stroke="#888780" stroke-width="0.8"/>
  <text x="241" y="160" text-anchor="middle" font-size="8" fill="#888780" font-family="sans-serif">0.80</text>
  <line x1="317" y1="114" x2="317" y2="122" stroke="#888780" stroke-width="0.8"/>
  <text x="317" y="160" text-anchor="middle" font-size="8" fill="#888780" font-family="sans-serif">0.85</text>
  <line x1="392" y1="114" x2="392" y2="122" stroke="#888780" stroke-width="0.8"/>
  <text x="392" y="160" text-anchor="middle" font-size="8" fill="#888780" font-family="sans-serif">0.90</text>
  <line x1="468" y1="114" x2="468" y2="122" stroke="#888780" stroke-width="0.8"/>
  <text x="468" y="160" text-anchor="middle" font-size="8" fill="#888780" font-family="sans-serif">0.95</text>
  <line x1="544" y1="114" x2="544" y2="122" stroke="#888780" stroke-width="0.8"/>
  <text x="544" y="160" text-anchor="middle" font-size="8" fill="#888780" font-family="sans-serif">1.00</text>
  <line x1="620" y1="114" x2="620" y2="122" stroke="#888780" stroke-width="0.8"/>
  <text x="620" y="160" text-anchor="middle" font-size="8" fill="#888780" font-family="sans-serif">1.05</text>
  <defs><marker id="arr" viewBox="0 0 10 10" refX="9" refY="5" markerWidth="5" markerHeight="5" orient="auto"><path d="M1 2L9 5L1 8" fill="none" stroke="#0e6b3d" stroke-width="1.5" stroke-linejoin="round"/></marker></defs>
  <line x1="425" y1="178" x2="547" y2="178" stroke="#0e6b3d" stroke-width="1.2" stroke-dasharray="3,2" marker-end="url(#arr)"/>
  <text x="486" y="192" text-anchor="middle" font-size="9" fill="#0e6b3d" font-family="sans-serif">static margin ~12.1% MAC</text>
  <line x1="131" y1="82" x2="131" y2="114" stroke="#888780" stroke-width="1.2"/>
  <text x="131" y="68" text-anchor="middle" font-size="9" fill="#888780" font-family="sans-serif">LE MAC</text>
  <text x="131" y="80" text-anchor="middle" font-size="8" fill="#888780" font-family="sans-serif">0.7275 ft</text>
  <line x1="408" y1="58" x2="408" y2="114" stroke="#378ADD" stroke-width="1.8"/>
  <text x="408" y="42" text-anchor="middle" font-size="10" font-weight="bold" fill="#378ADD" font-family="sans-serif">fwd limit</text>
  <text x="408" y="55" text-anchor="middle" font-size="8.5" fill="#378ADD" font-family="sans-serif">0.91 ft · 26.5%</text>
  <line x1="423" y1="122" x2="423" y2="126" stroke="#0e6b3d" stroke-width="2.4"/>
  <text x="423" y="130" text-anchor="middle" font-size="10" font-weight="bold" fill="#0e6b3d" font-family="sans-serif">nominal ✓</text>
  <text x="423" y="142" text-anchor="middle" font-size="8.5" fill="#0e6b3d" font-family="sans-serif">0.92 ft · 27.9%</text>
  <line x1="483" y1="82" x2="483" y2="114" stroke="#BA7517" stroke-width="2.0"/>
  <text x="483" y="68" text-anchor="middle" font-size="10" font-weight="bold" fill="#BA7517" font-family="sans-serif">aft limit</text>
  <text x="483" y="80" text-anchor="middle" font-size="8.5" fill="#BA7517" font-family="sans-serif">0.96 ft · 33.7%</text>
  <line x1="549" y1="122" x2="549" y2="126" stroke="#888780" stroke-width="1.0"/>
  <text x="549" y="130" text-anchor="middle" font-size="9" fill="#888780" font-family="sans-serif">NP est.</text>
  <text x="549" y="142" text-anchor="middle" font-size="8" fill="#888780" font-family="sans-serif">~40% MAC</text></svg>